# xmcd
#
# Track frame offsets: 
#        150
#        25371
#        42409
#        68317
#        88524
#        109728
#        129134
#        143559
#        157577
#        173643
#        185938
#        202146
#
# Disc length: 2880 seconds
#
# Revision: 0
# Processed by: cddbd v1.5.2PL0 Copyright (c) Steve Scherf et al.
# Submitted via: ExactAudioCopyFreeDBPlugin 1.0
#
DISCID=970b3e0c
DTITLE=Edgar Muenala - Children of the Sun
DYEAR=1998
DGENRE=Ethnic
TTITLE0=Pachamama
TTITLE1=Otavalena
TTITLE2=Mama Christo
TTITLE3=Sanjuanito Clasico
TTITLE4=One - Two 1-2-3
TTITLE5=Olvidarte de mi
TTITLE6=Sunn
TTITLE7=Mi casita
TTITLE8=Voy caminando
TTITLE9=Jaina
TTITLE10=Carmelita
TTITLE11=Shambachishami
EXTD=
EXTT0=
EXTT1=
EXTT2=
EXTT3=
EXTT4=
EXTT5=
EXTT6=
EXTT7=
EXTT8=
EXTT9=
EXTT10=
EXTT11=
PLAYORDER=
